# 3ds Max Wavefront OBJ Exporter v0.97b - (c)2007 guruware
# File Created: 11.12.2018 14:27:32

mtllib grass.mtl

#
# object grass
#

v  -28.0000 1.0000 28.0000
v  -28.0000 0.0000 -28.0000
v  -28.0000 0.0000 28.0000
v  -28.0000 1.0000 -28.0000
v  28.0000 0.0000 28.0000
v  28.0000 0.0000 -28.0000
v  28.0000 1.0000 28.0000
v  28.0000 1.0000 -28.0000
# 8 vertices

vn -1.0000 0.0000 -0.0000 
vn 1.0000 0.0000 -0.0000
vn 0.0000 0.0000 1.0000
vn 0.0000 0.0000 -1.0000
vn 0.0000 -1.0000 -0.0000
vn 0.0000 1.0000 -0.0000
# 6 vertex normals

vt 0.0000 0.0000 0.0000 #1-bottom-left
vt 0.0000 10.0000 0.0000 #2-top-left
vt 10.0000 0.0000 0.0000 #3-bottom-right
vt 10.0000 10.0000 0.0000 #4-top-right
vt 0.5000 0.5000 0.0000 #5-middle
# 5 texture coords

g grass
usemtl grass
s 1
f 1/5/1 2/5/1 3/5/1 
f 4/5/1 2/5/1 1/5/1 
f 5/5/2 6/5/2 7/5/2 
f 7/5/2 6/5/2 8/5/2 
f 5/5/3 1/5/3 3/5/3 
f 7/5/3 1/5/3 5/5/3 
f 2/5/4 4/5/4 6/5/4 
f 6/5/4 4/5/4 8/5/4 
f 2/5/5 5/5/5 3/5/5 
f 6/5/5 5/5/5 2/5/5 
f 1/2/6 7/4/6 4/1/6 
f 4/1/6 7/4/6 8/3/6 
# 0 polygons - 12 triangles
